<svg xmlns="http://www.w3.org/2000/svg" xmlns:xlink="http://www.w3.org/1999/xlink" version="1.1" x="0px" y="0px" viewBox="0 0 1000 1250" style="enable-background:new 0 0 1000 1000;" xml:space="preserve"><g><path d="M898.9647217,588.8164062c36.9793701,24.4580688-12.9220581,67.5333862-42.0861816,65.628479   c-19.8037109-1.2935791-31.4336548-20.8240356-33.5698242-38.8574219   c-2.6481323-22.3549805,7.1489258-44.1447754,19.9639282-61.8372192   c12.166626-16.7974854,28.0874634-31.984375,32.5432129-53.0391235   c3.6499634-17.2468567-2.4139404-33.8182678-15.6277466-45.3183594   c-16.9130859-14.719696-39.5775146-17.6697388-60.1348267-24.5148315   c-19.0565186-6.3452759-37.2911377-16.0679626-49.4862061-32.4876404   c-11.3175049-15.2383118-16.131897-34.6809998-12.6300659-53.3930359   c1.7688599-9.4521179,5.5773926-18.4698181,10.9561157-26.4302368   c5.9837646-8.8556519,14.2739868-14.7290039,21.4260254-22.4311523   c-49.0571899,19.0708008-61.8478394,81.6704102-25.8633423,119.0053406   c21.2025146,21.9981079,50.0611572,26.6285706,78.5717773,32.6734009   c26.8754272,5.6981506,47.5618286,26.9889832,36.6831055,55.4732361   c-10.671814,27.9425049-36.3207397,48.567688-50.1682739,75.0841675   c-12.0281982,23.0327759-20.1068115,53.7580566-6.0256958,77.7145386   c14.0102539,23.8358765,44.8309937,34.1714478,67.7953491,46.9552612   c25.5303955,14.2122803,52.5794678,31.6643677,68.3630371,56.9666138   c8.3987427,13.4638062,12.2570801,28.9803467,9.9487915,44.7715454   c-2.473877,16.9240723-12.3356323,31.3671265-16.6591187,47.7435303   c-2.8894043,10.9447632-3.4932861,23.3458862,3.1362305,33.1140137   c7.2351685,10.6605225,18.7974854,12.4597778,30.1706543,16.1426392   c-19.7990112,20.5489502-51.8197021,4.7722778-63.116333-16.9289551   c-11.9219971-22.9026489,1.3917847-48.3909302-11.0968018-71.2520752   c-12.7908936-23.4143677-39.4649658-38.085144-62.4228516-49.6611328   c-23.2463989-11.7214355-61.6050415-20.9977417-70.5137939-48.8887939   c25.6252441-24.3786621,17.0830688-77.9788208-15.1320801-100.543396   c2.039978-12.1243896-2.0877686-22.0715332-12.3152466-29.5609131   c11.9157104-22.0641479,25.5787964-43.8788452,34.491272-67.3973999   c7.6588745-20.2104187,13.1311646-47.9056702-5.3328247-64.0731201   c-15.4158325-13.4985046-38.4597168-7.2592773-49.1259155,9.098999   c-11.2030029,17.1813354-6.0167847,41.7805176,8.3451538,55.5140991c0.4856567-3.6853638-2.5166016-7.4413757-3.6588745-10.7941589   c-1.3239746-3.8857727-2.0053101-8.1069946-2.0689697-12.2074585c-0.1223755-7.8924255,2.1523438-15.8980713,6.7984619-22.3204346   c9.600708-13.2711792,28.6268311-16.4668579,34.7042236,1.6772156   c5.7096558,17.0462646-3.8054199,36.8200073-10.9186401,52.0542603   c-8.6015015,18.4214478-18.3591309,36.3668213-27.4696045,54.545105   c-22.2833252,2.4156494-33.1057739,24.402771-19.2195435,45.7681274   c-12.7128906,22.1864014-26.0080566,51.8013916-12.4152832,76.7775879   c13.1077881,24.085083,40.1499634,22.0267334,63.2071533,17.2697754   c12.0766602,38.7527466,56.8034668,50.4350586,84.5023193,74.946167   c26.0641479,23.0645752,38.428894,57.5111084,34.4950562,91.9260254   c-3.8911133,34.0411377-22.5825806,67.2390747-51.0070801,86.656311   c-16.388916,11.1954956-36.211731,18.4447021-55.9921875,12.6151733   c-20.2304688-5.9622192-33.6382446-24.8199463-54.2449951-30.0166016   c-23.7156372-5.9806519-33.9294434,15.9682007-52.9157104,24.2336426   c-18.9304199,8.2411499-41.2993164-1.4034424-48.3169556-20.9320679   c9.3721313,8.7724609,22.6988525,14.7695923,35.6272583,10.9784546   c14.8973389-4.3685303,19.8405151-20.4817505,29.9763794-30.5898438   c8.4003296-8.3773804,19.2835083-12.7383423,31.1685181-12.0319824   c14.9291992,0.8873901,27.3605957,10.0714111,41.8508301,12.2521362   c15.5250854,2.3364258,25.1919556-10.9622803,14.0062256-23.6274414   c-9.6282349-10.9016724-25.0864258-11.942749-38.1209717-16.1338501   c-24.2973022-7.8122559-45.8023682-22.6451416-58.6813965-45.0323486   c-16.5977783-28.8515625-18.2687378-64.5917358-12.4960938-96.6768188   c-3.8133545,3.5217285-4.8408813,10.6115112-6.7278442,15.3114624c-2.7155151,6.763916-5.7337036,13.4088745-9.1069336,19.8711548   c-5.8758545,11.2562866-12.8158569,21.96698-20.9036255,31.7630615   c-16.7474976,20.2850342-38.4418335,36.2849731-62.7761841,46.2994995   c-52.0086365,21.4034424-111.3696899,6.2280273-150.6314392-32.8853149   c-11.2732849-11.2307129-21.3105774-23.774353-29.5236511-37.4127197   c-4.3606262-7.2412109-8.2098083-14.7976685-11.486084-22.5901489c-3.0680542-7.2971802-4.765686-15.4081421-8.8635254-22.2053223   c4.5411682,32.8641968,3.843811,67.7486572-14.2850952,96.7529907   c-8.0435181,12.8687744-19.2229919,24.6807861-33.1235657,31.1885986   c-14.8259888,6.9412231-27.7861023,4.1508789-43.3467102,4.696167   c-13.4637756,0.4718628-29.2106323,8.7282715-32.0375214,23.1896362   c-2.6578827,13.5969238,13.7866058,26.7462158,26.506897,25.6555176   c16.1136017-1.3817139,27.034256-16.491394,44.4374542-15.2412109   c13.6543274,0.980835,25.3059998,11.4639893,28.7193604,24.5789185   c-11.0412598-10.4876709-24.7158813-18.5339355-38.2237854-6.6933594   c-12.5316162,10.9848022-20.3468628,22.4714966-37.4294739,27.0136719   c-30.9175568,8.2207642-67.5732269-6.2371216-91.5592957-25.6942749   c-22.8556824-18.5402222-39.2751999-47.5297852-32.5070419-77.5680542   c7.6575089-33.9854126,39.2369766-50.7940063,70.5483475-58.5878296   c38.9356689-9.6917114,81.0578766-10.1802979,105.4777374-46.8786621   c-24.4822998,18.9504395-51.0285339,31.8925781-82.7906952,28.1618652   c-15.4864349-1.8190308-30.5347137-7.0637207-44.2013702-14.489563   c-11.6915131-6.3526611-22.3985138-11.9255371-35.930191-12.7192993   c-23.3560028-1.3702393-48.2398834,8.7426758-62.9656601,27.149353   c-8.8284607,11.0351562-13.6372986,25.1207886-9.5610352,39.0734863   c4.2266388,14.4674072,15.9531174,23.0567627,23.7693253,35.2352295   c9.4660873,14.7490845,6.9662933,31.0184937-5.8084946,42.8010254c-9.6407166,8.8919678-29.3491287,15.0263672-39.4453621,3.451416   c13.9868736,0,29.9832954-5.2532959,28.6472588-22.7615967c-1.2045288-15.78479-20.9896965-22.6119385-29.3882141-34.3581543   c-16.6077461-23.2276001-10.7984734-61.4672852-2.3747749-86.9018555   c9.2003975-27.7797852,28.0212898-51.5278931,52.1111946-68.003479   c26.9577408-18.4368896,58.036026-17.2424927,84.6467285,1.5099487   c-6.900177-38.1560059-53.1824799-30.878479-78.2800903-49.6524048   c-25.6299057-19.1719971-28.5522461-57.1849976-22.3883514-86.2199097   c3.7893753,16.0028687,8.5240936,33.2849731,21.1956482,44.6901245   c14.7652893,13.2897339,35.9220734,14.7545776,53.9870911,7.8306885   c-12.2839203,0.5579224-23.7137909,0.9543457-34.1274643-6.8226318   c-8.6914902-6.4907837-13.6718063-16.7915649-13.5390167-27.62146   c0.3712692-30.2788696,35.704277-40.7175903,43.8609085-67.6169434   c3.4414215-11.3494873-0.3583374-21.0379639-9.8943024-27.8742676   c-9.8110809-7.0335388-27.3844604-8.7768555-31.7651291-21.6262207   c-3.9095459-11.4674072,3.0522232-24.9852295,2.2649155-36.835022   c-0.8468781-12.7467041-8.2053604-21.8162842-19.8553467-26.7844543   c15.5116577,2.1474915,31.4193726,10.6725769,35.6143112,26.9103699c2.2665939,8.7736816-1.593399,16.9102173-0.9754486,25.6659851   c0.667572,9.4590454,6.3473434,14.812439,12.2854233,21.5796814c11.7061157,13.3406677,21.7961884,31.5513916,36.925415,41.253418   c14.0987854,9.0413208,31.7399445,8.0737305,45.7334595-0.5889282c0.8270721-3.1078491,0.7780457-5.8519592-0.3147278-8.5098572   c-2.6952057-0.8312683-8.0929413,1.5778198-11.1752472,1.9055481c-3.6690674,0.3899841-7.4305115,0.436676-11.0644684-0.2953491   c-8.0109711-1.6135864-14.3209381-6.5974121-19.4194794-12.7999268   c-12.5089264-15.2174683-20.4255829-35.602417-19.2640686-55.4185181   c1.2388458-21.1363525,12.6062164-38.5983887,27.6794434-52.7368469   c16.8680115-15.821991,36.3265991-29.3948059,43.4380035-52.4877319   c6.7214508-21.8265991,1.2505798-45.2135315,4.6007233-67.5628357   c2.9838715-19.9059143,11.8031006-38.4540405,26.0193939-52.7850189   c13.9000549-14.0122375,41.4864502-24.5724335,45.9841919-45.5246124c1.9898682-9.269516-2.2459717-17.7038269-3.246521-26.7795105   c-1.2915344-11.7147827-0.3796997-23.9373169,5.1647034-34.5142899   c4.4771729-8.5411148,18.1185913-17.7172012,18.6317139-27.732132   c0.5874939-11.4672012-18.9966125-8.3547974-26.1193237-10.8381424   c-21.6521301-7.5490799-11.0346069-35.7681847,1.3166199-46.9283791c-3.362915,7.0189533-6.9300232,16.1053772-4.6906433,24.008728   c2.446167,8.6332474,10.7184753,9.7698708,18.5954285,10.2855148c13.4815674,0.8824959,31.590332,1.6425705,31.3886719,19.5508308   c-0.1900024,16.8705826-17.2860718,28.6787338-15.5204468,45.6888809   c0.9646912,9.2943115,7.3339233,16.5496368,12.7473755,23.7069702c5.8673096,7.7574158,11.8612061,15.4181824,17.7618408,23.150177   c-4.6896362-15.1637268-4.3349609-31.1751556,3.2598877-45.3662872   c7.0384827-13.1516037,18.8287354-19.2389755,31.2490234-26.3334274   c11.6374207-6.6472778,23.059845-17.2902679,12.864563-30.8688431   c-11.3985291-15.181179-22.5621033-3.6816139-28.0334473,8.8441772   c-10.9202881-5.9318008-14.6045227-20.1303444-11.973175-31.6011581   c3.1004028-13.5155945,15.2151794-23.5999165,27.8702393-28.0068512   c26.3951721-9.1917171,57.3018188,0.3578005,77.2471619,18.892971   c8.3112793,7.7236633,21.6795654,22.8054161,21.6599121,35.0033302   c-0.0114441,7.1368484-5.6671143,15.9756393-8.3455811,22.4651947   c-3.7992859,9.2052078-7.6607971,18.3846054-11.4588318,27.5903091   c-13.8391418,33.543396-30.6836243,69.6105957-29.535675,106.6782532   c1.2120667,39.1378021,24.2650757,71.5549469,53.9510193,95.2239532   c37.1026306-28.1334534,62.3670959-69.7483826,55.4959412-117.5174408   c-3.9830322-27.6906281-14.8400269-54.6517944-25.1425781-80.5003433   c-4.5899048-11.5157623-12.7232666-24.6907654-13.4247437-37.2422791   c-0.6609497-11.8287201,7.7861328-23.6107445,15.4002686-31.9589806   c26.2050171-28.731266,73.8429565-35.4293137,104.1361694-9.0691452   c7.40271,6.4415359,14.9829712,15.9157677,11.4085693,26.2758064   c-3.5735474,10.357338-15.7583618,15.7878723-18.0513916,26.9008026   c-1.8640747,9.0343704,5.2304077,15.4091263,11.7972412,20.3548965   c11.4308472,8.609169,24.1566772,15.3553467,35.4835205,24.1435394   c21.1717529,16.4266052,37.9536133,39.7086029,45.060791,65.6888885   c3.3106079,12.101944,4.4766846,24.7124176,3.7645264,37.2266235c-0.4047241,7.1126556-1.4105835,14.1846313-2.8885498,21.1517029   c-1.3325806,6.2816162-4.8114624,13.2295227-4.984314,19.6183167c14.31073-19.1190186,13.2422485-49.8628998,8.8731689-72.0296478   c7.0341187-0.5108948,15.8581543,5.6218872,21.8934937,9.0280914c8.3372192,4.7053986,16.1992798,10.2726593,23.154541,16.8674927   c12.9169922,12.2476654,23.0228271,28.4197693,27.3995972,45.7611694   c5.7334595,22.7175903-4.4594727,43.2217102-8.5305176,65.1340027   c-4.0544434,21.822998,6.4510498,39.6157227,23.2243652,52.8801575   c31.7061768,25.0732727,78.8796387,44.4056091,88.0241699,88.5648804   c4.6611938,22.5089722-6.2405396,42.2312622-20.3441162,58.9206543   c-13.3800049,15.833313-31.0079346,31.467041-33.6983032,53.263916   c-2.5125122,20.3552246,14.8999023,29.3814697,32.9428101,23.635498   C901.6137085,621.1930542,907.8604736,607.2158203,898.9647217,588.8164062z M498.7689819,371.2956543   c-14.5824585-11.335907-29.2426147-20.5476685-46.4459229-27.4127197   c-12.3959351-4.9466553-22.9547119-11.2556763-31.7375183-21.524292   c-14.0362549-16.4108582-21.6113586-38.8339844-19.7827148-60.4085083   c1.08078-12.7510834,7.0317078-22.7508392,10.8439636-34.6757507c4.6920776-14.677124,3.47229-28.4993286,2.7504883-43.5852509   c-1.2920227-27.0030365,9.138916-46.4999847,29.0779114-63.8266907   c22.0032959-19.1205368,26.3140259-52.0422363,12.1899109-77.0431976   c-1.9814148,4.0432243,2.5958557,13.5162659,3.1994019,18.1678658c0.8953247,6.9004974,0.8554688,13.9009171-0.3912659,20.7545319   c-2.5082397,13.7886505-9.8790894,25.8327408-19.9321594,35.4470444   c-10.7949524,10.3238602-21.3773804,18.7132111-27.6677856,32.7433929   c-5.6816101,12.6723175-7.1878967,26.5605164-6.5327759,40.318634c0.7980042,16.7586212,2.066803,31.1105194-7.1329041,45.9516296   c-9.0860291,14.6577606-11.2914734,28.8895111-4.2545776,45.0737457   c3.0148621,6.9339294,7.0664978,13.1791687,8.9302368,20.6061707c1.84552,7.3544006,2.0726624,14.5184937,5.8605957,21.3136597   c7.397522,13.2703857,21.7906494,18.9813232,34.6606445,25.5466919   c-24.4752502,7.4687805-48.6550598-7.8751831-72.8514404-9.0063782   c-7.7915039-0.3642273-15.1604309,1.4842224-20.8684998,7.0316162   c-6.5103455,6.3270874-7.8275452,15.3402405-12.9164429,22.5458679   c-11.3974304,16.1381836-31.7250061,19.6384583-48.9186707,11.2474365   c-21.7911987-10.6348572-34.4869843-27.838501-44.4438171-49.3635864   c-3.7449493,13.0400696,11.6298523,32.6244812,20.4030457,40.8534851   c5.8605347,5.4969788,12.5861511,9.8859863,19.6990051,13.5768127c7.016449,3.6407776,14.8830872,6.5468445,19.5032043,13.3717651   c15.8983765-9.7481384,25.4115295-11.3847656,33.9866638-5.8662109   c-5.1959534,5.9391174-10.5304565,11.7597046-15.1171265,19.1299438c4.2661438,0.564209,7.7374573,1.0233459,12.0811462,1.5977478   c-11.2359619,9.8237915-21.4944763,21.7600098-27.361908,35.6549072   c-6.9985046,16.5735474-4.7524414,34.1208191-3.3044434,51.5542908   c3.2434387,39.0492554,9.1181335,77.8873901,17.8064575,116.0991821   c3.8685303,17.0142822,8.2924805,33.901123,13.2718811,50.6241455c4.7015991,15.789917,9.3294067,32.2158203,19.1108398,45.7388916   c19.6915588,27.223999,44.3205872,52.1296997,68.2075195,75.6575928   c23.3649902,23.0136719,55.652771,29.107666,87.6070862,27.4421387   c32.2806396-1.6825562,57.0534668-13.2404175,78.9630127-36.8335571   c12.661438-13.6343994,25.1611938-27.418335,37.5793457-41.2744141   c10.6867676-11.9242554,21.2081909-23.4810791,28.5477295-37.8529663   c14.7297363-28.8427124,21.0342407-63.8814697,27.3392944-95.418396   c7.0881958-35.4542236,11.9414062-71.5617676,14.6941528-107.6081848   c1.1890259-15.5700989,4.8826294-34.0656128-2.2318115-48.6376343   c-6.532959-13.3809204-16.9153442-26.0803528-28.878418-34.9310608c3.3932495-2.3822021,7.4547119-0.1532593,10.4406738-3.0713196   c-4.4608154-5.7746277-13.2425537-13.1136169-15.5835571-19.966156   c15.8474121-2.8252869,15.8474121-2.8252869,39.1315308,10.2908936c0.6349487-5.1794434-2.1864014-8.9978333-4.2741089-13.118866   c-17.1075439-3.5843201-30.781189-13.110321-38.3894653-29.0297852   c-8.1416016-17.0354309-19.0734863-21.4047852-37.5804443-18.3627014   c-22.74823,3.7392578-45.0147705,9.3849487-68.0518188,11.2546997   C531.2327271,353.5964355,512.3620605,357.0997314,498.7689819,371.2956543z M253.6689606,615.2402344   c-31.993454,23.3522949-49.8045807,89.5982666-1.8653717,106.2669067   c21.2044983,7.3728638,48.4662781,2.520752,59.6288147-18.6120605c6.0927734-11.534668,6.5544434-25.6865234,3.9547424-38.2334595   c-1.3718262-6.6209717-3.6529236-12.9754028-6.4701843-19.1119385c-2.7643127-6.0211792-8.3052368-12.227478-9.8200378-18.6973877   c12.871582-14.6796265,8.6181335-41.0779419-18.1699219-46.0484009   c-9.8566284-18.9346313-20.3719482-37.6777344-29.3320007-57.0578003   c-7.0371552-15.2208862-17.7758026-39.1043396-7.2566528-54.9940186   c9.6599426-14.5918579,27.0697327-5.3305054,34.0337524,6.6582947c8.4248047,14.5035095,4.8085632,28.8518066-1.4039001,43.1978455   c13.7254028-12.4011536,19.785614-35.7525635,11.4715271-52.7267761   c-8.9699402-18.3131409-33.0957184-26.2329102-49.9916992-13.8940735   c-20.21875,14.7654114-15.5646362,43.5472412-8.3780975,64.0287476   c8.5855713,24.4689331,22.9748383,46.7927246,36.0223846,69.0421753   C254.830719,595.0462036,253.0655518,599.4429932,253.6689606,615.2402344z M576.9456177,305.8477478   c29.5577393-28.7085876,46.8173828-73.8882904,38.8796387-115.0067596   c-4.2086182-21.8014679-15.949585-37.931488-29.3735962-54.9623566c-13.697876-17.3782578-22.4732056-36.8515701-18.03302-59.32164   c-27.3215942,40.2439575,21.0596924,74.9902954,32.329895,110.9971313   C613.6519165,228.7790222,599.0608521,270.7619629,576.9456177,305.8477478z M806.0464478,850.3131104   c-4.7025757-12.2160645-22.3009033-21.7028809-33.3855591-26.9766235   c-15.5796509-7.4123535-32.2449951-12.8260498-47.3751831-21.1465454   c-11.2108154-6.1650391-21.0737305-14.6228638-28.4594727-25.104248   c-3.9619751-5.6226196-7.1619873-11.7324829-9.6901855-18.1231689c-2.116394-5.3496704-2.5957642-14.5280151-6.5240479-18.7623901   c0.3198853,26.3029785,7.9100342,50.7980347,29.9528198,66.6520996   C739.2421265,827.4782104,776.5109253,830.7012939,806.0464478,850.3131104z M296.5599976,578.1606445   c-4.7868652-9.8455811-9.8132935-19.5662842-14.8417358-29.2911377   c-4.7891846-9.262146-14.0246582-20.8453979-14.0738525-31.5861206   c-0.0478821-10.4528503,9.2001648-17.183136,6.7726135-28.5313416c-1.5492249-7.242157-8.272522-15.6972656-16.5860596-14.3475952   c-22.8364868,3.7073975-2.4673462,38.1806335,3.0222778,47.6662292   c6.230896,10.7665405,12.4836731,21.5203247,18.750061,32.2662354   C283.565979,561.1323242,288.307251,575.5686646,296.5599976,578.1606445z M702.4633789,576.5977173   c0.5678101,0.5143433,1.135498,1.0286865,1.7033081,1.5430908c12.3347778-17.3416138,22.3383789-37.6708374,32.7107544-56.2889404   c5.4100952-9.7109375,25.5058594-43.4577637,2.9721069-47.2871094   c-9.4536743-1.6065369-17.0517578,10.1508484-17.1904907,18.5569458   c-0.1635132,9.8991089,8.7493896,16.6703186,7.2553101,26.9160767c-1.3450317,9.2234497-8.406189,18.8880005-12.5480347,27.1494751   C712.440918,557.0116577,707.4313965,566.7947388,702.4633789,576.5977173z M331.210022,299.8469849   c-7.1191711-10.8785706-13.2094116-21.8964844-12.5102234-35.3296509   c0.6824341-13.1117706,7.5667114-23.31427,15.0497131-33.5701141c14.6265259-20.0466156,23.9862366-44.7433624,9.1792297-67.533432   c4.2268677,13.9854736,3.1108704,28.529129-3.2938538,41.6528778c-5.9482117,12.188385-16.3267517,21.091629-23.1873779,32.6290741   C303.4798279,259.5032349,310.2404175,285.9580383,331.210022,299.8469849z M202.4223938,836.7312622   c-22.7021484,8.3201294-38.1602631,36.1623535-34.4474487,62.0446777   c3.0550232,21.296814,23.0379333,41.0194702,43.2019501,42.6392212   C172.5595551,920.5639038,167.3840942,867.1595459,202.4223938,836.7312622z M758.5391235,870.5119629   c35.8411255,14.0306396,58.9324341,49.3261719,35.7958374,85.3961792   c18.6688232-10.5077515,25.2723999-35.6862183,16.012207-54.6013794   C800.961792,882.1359253,779.0236206,871.8589478,758.5391235,870.5119629z M654.2278442,270.9873962   c21.7900391-13.4502563,35.3897705-32.0801392,35.4441528-58.5203552   c0.0453491-22.0226746-14.5270386-47.4990234-30.2245483-54.3112335   C691.3580322,190.6366425,691.3898315,232.4471893,654.2278442,270.9873962z M308.9535828,812.008667   c-15.1345215,17.2501221-34.8252258,23.182373-56.8441315,24.2164307   c-9.9534149,0.4675293-19.204361,3.7907104-26.6550903,11.2163696c9.2956238-4.4225464,19.1600952-4.545105,28.999176-4.0795898   C279.254425,844.5353394,296.6222534,832.7558594,308.9535828,812.008667z M306.6080933,329.4197998   c-28.9825745-16.9771729-40.6343079-40.79422-35.1914062-73.4739227   C255.303299,283.9404907,272.9138794,321.3091736,306.6080933,329.4197998z M210.9606781,457.3938904   c-22.8820038,0.5444031-37.6188354-20.5893555-36.4019928-42.009552   c-4.9487915,11.5268555-4.7186737,24.8095703,3.4613037,34.781311   C185.8799896,459.747345,200.0434418,465.4891663,210.9606781,457.3938904z M619.8070679,67.0186691   c-27.0491333,10.8050995-27.244873,51.0743866,1.5744019,60.15271   C600.0769653,104.5362549,599.5396118,90.865097,619.8070679,67.0186691z"/><path d="M503.0497437,90.843811c3.8165894,17.6853943,7.3984375,35.4165573,12.2324219,52.8599701   c4.6257324,16.6920166,10.5283203,33.2545013,13.9144897,50.2590485   c6.8322144,34.311264-5.8114624,66.5505066-27.2314148,93.2513733   c-19.3938293-25.5368042-32.4695435-55.8036804-26.502655-88.3632812   C482.152832,162.3439636,496.581665,127.5477829,503.0497437,90.843811z"/><path d="M709.6872559,634.6219482c10.1147461,3.1272583,18.93927,1.5651855,26.2740479-5.8447266   c17.9902954,14.9418335,18.3779907,47.7272949-8.6268921,52.6062622   c-10.3035889,1.8615723-21.8043213-2.6140137-26.5957642-12.3098145   C695.2009277,657.8677368,701.4511719,642.8796387,709.6872559,634.6219482z"/><path d="M687.7820435,672.3595581c9.4105225,16.1200562,23.9523315,28.3106079,43.5825195,24.3226929   c19.7355347-4.0092773,25.8646851-21.309021,28.6901245-39.1553345   c6.5774536,21.7070312-10.6222534,45.4532471-31.8964233,49.5979614   C705.0994873,711.6171875,684.7177734,696.413269,687.7820435,672.3595581z"/><path d="M717.6542358,598.6044312c13.4870605-0.3709717,14.3138428,19.9359131,0.8483887,20.2409668   C705.6948242,619.135498,704.6911011,598.9610596,717.6542358,598.6044312z"/><path d="M317.0014954,478.0816956c15.3700562-19.1063843,37.7446289-31.007843,62.5423584-30.1579285   c12.9440613,0.4436646,25.5422668,4.1325378,37.2079773,9.6246338   c12.8659973,6.0571594,24.6936646,16.7373352,38.9489441,19.1062927c6.3153992,1.049469,9.3659668,1.7312927,13.3800354,7.1178589   c3.8418274,5.1553955,6.9191284,11.046814,9.3153687,16.9966125c5.1471863,12.7803955,6.8784485,26.588562,6.6549072,40.291748   c-0.5116882,31.3684692-5.6877747,62.4785156-5.5903625,93.8931885   c-5.5849609-21.7747803-10.8218384-43.6220703-18.3148193-64.8483276   c-2.4708252-6.9993286-5.0247192-19.1594849-11.4883118-23.7688599c-6.4593506-4.6063232-14.1824951,1.5084839-20.1371155,4.085144   c-19.2578125,8.3330078-40.871521,5.1258545-60.6799011,0.5841064   c-17.5011292-4.0127563-33.3240051-12.6574707-44.1159668-27.3103027   c14.1447144,11.6607056,29.3141785,20.7636719,49.4351196,20.5333862   c-19.3200989-11.8126221-28.9962769-20.8131104-38.7796631-36.2062073   c19.2536926,5.1946106,34.6562805,19.481781,54.6279907,23.6914368c17.871521,3.7670288,34.7663269-1.564209,48.4760437-13.3727417   c4.9122925,1.4240112,9.793457,2.8390503,16.1467285,4.6807251c-14.4033508-21.307251-38.7492065-38.3053894-61.4504395-49.7518921   C367.9443665,460.54599,340.6206055,462.9214783,317.0014954,478.0816956z"/><path d="M681.0179443,476.4468384c-27.1553955-13.0881653-51.8613892-15.733551-79.2382202-1.6488037   c-22.8184814,11.7396545-43.2214966,28.2429504-58.4978027,48.8604126   c6.1934204-2.1836548,10.6818237-3.7660522,15.7560425-5.5550537c16.1754761,12.0979614,34.0667725,18.15448,54.1099243,12.9597168   c9.1387329-2.3685303,17.6931152-6.5321655,26.0325928-10.8690796c6.444458-3.3513184,17.4158325-12.4111328,25.1690063-11.5591736   c-10.1931763,14.832428-22.2061768,26.9417419-39.6900635,36.1273499   c20.4182129-0.7562866,35.5459595-8.4417725,49.2705078-20.0432129   c-5.4606323,15.1696777-31.3095093,23.8984375-45.2574463,27.1862183   C610,556.3066406,588.5004272,558.265564,570.4816895,550.453125c-6.8894653-2.9869385-13.848999-9.6245728-21.1204834-3.9669189   c-6.9484863,5.4064941-10.0594482,17.9486694-12.9741821,25.8777466   c-3.6969604,10.0571289-6.793396,20.3214111-9.6000366,30.6590576c-2.6950684,9.9266968-3.9911499,21.5427856-9.0592041,30.602356   c0-30.4951172-3.5340576-60.678894-3.8164062-91.0958252c-0.1906128-20.5361938,3.2503662-61.0909119,28.1925049-66.2185364   c13.7115479-2.8189087,23.9852905-11.3402405,36.4954834-17.5906372   c12.0469971-6.0188904,24.9755249-10.3710327,38.5088501-11.0815125   C642.3054199,446.31604,664.0001831,458.7330322,681.0179443,476.4468384z"/><path d="M578.7842407,699.1688843c-6.1290283,13.3971558-16.0944214,21.4094849-31.0388184,21.949707   c-6.3608398,0.2299805-12.784729,0.1514282-19.1113281-0.4779053c-7.8474731-0.7808228-15.479248-0.6565552-23.1689148,1.3505859   c-3.1144409,0.8129883-6.7782288,1.1079712-9.8326416,0.2925415c-14.074707-3.7572021-28.1644897-1.30896-42.2687988-0.8461914   c-17.1125488,0.5613403-29.9802246-8.029541-35.0387268-23.7348022c12.7468567,7.9137573,25.1609192,5.4567871,37.670166,0.8529663   c10.9667358-4.036377,21.7174072-5.1864014,32.7706299,0.8155518c6.8865662,3.7394409,15.0082703,3.288208,21.990448-0.0784302   c11.1351624-5.3693237,21.8586121-4.6182251,32.8262024-0.1633301   C555.2011108,703.848999,566.821167,705.0216064,578.7842407,699.1688843z"/><path d="M463.1453857,618.1333008c-14.2998962,11.2502441-17.3547668,23.057373-9.7118835,35.0318604   c8.4032593-3.564209,17.0396729-2.953186,24.5967712,2.244873c8.0614014,5.5447998,12.5949097,13.611084,23.6461487,12.3745728   c12.0039978-1.3430176,28.7842712-30.1469727,42.4618835-13.7177124   c9.3428345-11.9818115,5.6125488-25.4310303-9.7005615-36.0821533   c22.6107178-0.2501221,31.137085,30.5646362,11.8063354,41.9286499   c-8.4435425,4.9636841-23.2365723,6.5592041-28.0139771,16.1709595c-2.2240601,4.4749146,0.1095581,9.9713135-3.7544556,13.6670532   c-3.598999,3.4422607-11.9659729,4.0474854-16.4795837,3.9807739c-4.3504028-0.064209-10.1391296-0.9436646-13.4400024-4.2008057   c-3.6123352-3.5645752-2.5538635-8.013855-4.3225098-12.3157349   c-4.2828369-10.4169922-19.1213074-11.9125977-27.8336182-16.9179688   C432.3703003,648.7902832,441.4090881,620.2116089,463.1453857,618.1333008z"/><path d="M449.2009583,726.9058838c1.6351624-0.1915283,1.9478149-0.3304443,2.0853882-0.2297974   c19.4336243,14.2102051,42.1608887,8.751709,63.6401062,10.5385132c9.557312,0.7950439,17.9394531-3.288147,25.9367676-8.0703125   c1.734314-1.0370483,3.0082397-3.0922241,6.1530762-2.4265137c2.1057129,5.3839111-0.62677,9.9343262-3.4950562,13.946106   c-7.7540894,10.8453979-19.1727905,14.2044067-31.7669067,13.4537964   c-8.7410278-0.5210571-17.3934631-0.7792358-26.1452332-0.2297974   c-10.9977417,0.6904907-21.1305237-2.0999756-29.1472778-10.151001   C451.9128723,739.1685791,448.9932861,733.7392578,449.2009583,726.9058838z"/><path d="M499.1710205,384.3722229c18.3116455,28.8873596,19.4883423,61.1142273,0.5569763,78.3128662   C482.5084839,451.6157532,478.2459717,415.9336548,499.1710205,384.3722229z"/><path d="M499.1720581,501.8115845c-13.9909668,0.0710144-13.5586243-21.6746216,0.5345459-20.528717   C512.6894531,482.3384705,512.2843628,501.7449951,499.1720581,501.8115845z"/><path d="M261.1355896,629.0835571c7.9414673,6.3518066,16.5050354,8.6201782,25.9234314,5.869873   c13.6956177,14.6841431,15.1538391,30.3927612,3.9718018,40.8182983   c-9.4628296,8.8226929-26.4959717,7.8703613-35.9293671-2.0089111   C244.2556763,662.4044189,246.6669006,643.3572388,261.1355896,629.0835571z"/><path d="M309.1459351,670.9678955c2.625946,23.3544312-14.3499756,40.4265747-37.9358215,36.7655029   c-23.6752319-3.6750488-40.4174805-28.701416-34.1119232-51.9326782   c0.3468628,20.072876,10.2090912,39.5926514,32.1496124,41.4007568   C288.3015747,698.7716675,301.2817383,687.4613037,309.1459351,670.9678955z"/><path d="M290.0524597,608.7008057c0.317627,13.2141724-20.1154175,13.3887329-20.3315735,0.3167114   C269.5025635,595.8138428,289.7355652,595.5164795,290.0524597,608.7008057z"/></g><text x="0" y="1015" fill="#000000" font-size="5px" font-weight="bold" font-family="'Helvetica Neue', Helvetica, Arial-Unicode, Arial, Sans-serif">Created by Brad</text><text x="0" y="1020" fill="#000000" font-size="5px" font-weight="bold" font-family="'Helvetica Neue', Helvetica, Arial-Unicode, Arial, Sans-serif">from the Noun Project</text></svg>